<svg width="50" height="47" fill="none" xmlns="http://www.w3.org/2000/svg"><ellipse opacity=".3" cx="31.339" cy="29.255" rx="18.185" ry="17.753" fill="#335DFF"/><path opacity=".71" d="m37.234 25.92-6.958-2.53a.88.88 0 0 1-.572-.705l-.357-2.499a7.952 7.952 0 0 0 4.04-6.903V8.059a4.732 4.732 0 0 0-4.162-4.693l-.77-1.538a1.622 1.622 0 0 0-1.971-.793L21.74 2.731a6.567 6.567 0 0 0-3.412 3.07 10.025 10.025 0 0 1 3.61 7.723v1.52c.208 2.3.963 4.517 2.203 6.465a2.644 2.644 0 0 1-1.02 3.831 6.427 6.427 0 0 1-.874.34l1.214.364a5.256 5.256 0 0 1 3.762 5.065v4.201c-.003.301-.058.6-.162.881h11.611a.88.88 0 0 0 .88-.88v-6.08a3.533 3.533 0 0 0-2.318-3.31Z" fill="#335DFF"/><path d="M26.4 36.191H.93c-.502 0-.91-.4-.91-.895v-4.268c-.007-1.583 1.05-2.981 2.594-3.43l6.037-1.782a.9.9 0 0 0 .637-.73l.147-1.007c-3.898.582-6.083-.465-6.185-.513a.898.898 0 0 1-.473-.571.883.883 0 0 1 .123-.727 16.067 16.067 0 0 0 2.578-7.56v-1.79c0-2.23.94-4.36 2.594-5.883a8.266 8.266 0 0 1 6.139-2.155c4.362.358 7.7 3.976 7.64 8.284v1.545a16.067 16.067 0 0 0 2.577 7.559c.145.213.19.478.122.727a.898.898 0 0 1-.472.57c-.1.05-2.286 1.095-6.186.514l.148 1.007a.9.9 0 0 0 .636.73l6.04 1.782c1.544.449 2.6 1.847 2.594 3.43v4.268a.902.902 0 0 1-.91.895Z" fill="#335DFF"/></svg>