<svg width="27" height="26" viewBox="0 0 27 26" fill="none" xmlns="http://www.w3.org/2000/svg">
<g id="Hillpay-LOGO-with-tag 1" clip-path="url(#clip0_75_727)">
<g id="Container">
<path id="Vector" d="M1.24615 0.408651C1.05144 0.473555 0.765865 0.629324 0.623077 0.75913C0.0129808 1.29134 0 1.49903 0 7.41827V13H8.76202H17.524V18.4519C17.524 24.488 17.537 24.5918 18.3288 25.0721C18.7313 25.3187 18.9779 25.3317 22.0543 25.3317H25.3385L25.8447 24.8255L26.351 24.3192L26.325 21.801L26.2861 19.2697L20.9639 13.7399L15.6418 8.21009L12.3058 8.19711H8.96971L8.93077 4.84807C8.87885 0.136055 9.08654 0.356728 4.67308 0.317785C2.99856 0.304804 1.45385 0.343746 1.24615 0.408651Z" fill="#1891F3"/>
<path id="Vector_2" d="M18.5625 0.512501C18.3159 0.629328 17.9784 0.927885 17.8226 1.17452C17.537 1.60289 17.524 1.71971 17.524 4.54952V7.49615L20.1981 10.2481L22.8721 13H24.6115H26.351V7.28846C26.351 0.83702 26.3769 0.966827 25.4034 0.525481C24.9231 0.317789 24.5207 0.278847 21.9375 0.278847C19.4063 0.278847 18.9519 0.304809 18.5625 0.512501Z" fill="#1891F3"/>
<path id="Vector_3" d="M0 16.8034V18.6466L3.34904 21.9957L6.6851 25.3317H8.99567H11.2933V23.3457V21.3726L8.07404 18.1534L4.86779 14.9471H2.4274H0V16.8034Z" fill="#1891F3"/>
</g>
</g>
<defs>
<clipPath id="clip0_75_727">
<rect width="27" height="25.4423" fill="white" transform="translate(0 0.278839)"/>
</clipPath>
</defs>
</svg>
