<svg width="40" height="37" fill="none" xmlns="http://www.w3.org/2000/svg"><ellipse opacity=".3" cx="23.164" cy="20.815" rx="16.164" ry="15.354" fill="#9F0000"/><path d="M23.516 9.5c-1.88-1.797-4.336-2.695-6.792-2.695v9.212l-6.792 6.518c3.752 3.6 9.824 3.6 13.576 0 3.752-3.6 3.752-9.435.008-13.035Z" fill="#FF2F00"/><path opacity=".5" fill-rule="evenodd" clip-rule="evenodd" d="M.724 16.017c0-8.483 7.16-15.354 16-15.354s16 6.871 16 15.354c0 8.476-7.16 15.354-16 15.354s-16-6.87-16-15.354Zm3.2 0c0 6.787 5.728 12.284 12.8 12.284 7.072 0 12.8-5.497 12.8-12.284 0-6.786-5.729-12.283-12.8-12.283-7.072 0-12.8 5.497-12.8 12.283Z" fill="#FF2F00"/></svg>