<svg width="126" height="35" fill="none" xmlns="http://www.w3.org/2000/svg"><g clip-path="url(#a)" fill="#1891F3"><path d="M1.246 4.909c-.195.065-.48.22-.623.35C.013 5.791 0 6 0 11.92V17.5h17.524v5.452c0 6.036.013 6.14.805 6.62.402.247.649.26 3.725.26h3.285l.506-.506.506-.507-.026-2.518-.039-2.531-5.322-5.53-5.322-5.53-3.336-.013H8.97l-.04-3.349c-.051-4.712.157-4.491-4.257-4.53-1.674-.013-3.22.026-3.427.09ZM18.563 5.013a2.118 2.118 0 0 0-.74.662c-.286.428-.299.545-.299 3.375v2.946l2.674 2.752 2.674 2.752h3.479v-5.711c0-6.452.026-6.322-.948-6.764-.48-.207-.882-.246-3.465-.246-2.532 0-2.986.026-3.375.234Z"/><path d="M0 21.303v1.844l3.349 3.349 3.336 3.336H11.293v-3.959l-3.219-3.22-3.206-3.206H0v1.856Z"/></g><path d="M47.068 5.4h4.984V25h-4.984v-7.532h-5.516V25H36.54V5.4h5.012v7.252h5.516V5.4Zm12.097 3.668a2.56 2.56 0 0 1-1.876.784c-.728 0-1.363-.261-1.904-.784-.523-.541-.784-1.176-.784-1.904s.261-1.353.784-1.876c.541-.523 1.176-.784 1.904-.784a2.56 2.56 0 0 1 1.876.784c.541.523.812 1.148.812 1.876s-.27 1.363-.812 1.904ZM54.965 25V11h4.648v14h-4.648Zm7.328 0V4.56h4.648V25h-4.648Zm7.328 0V4.56h4.648V25h-4.648Zm15.953-14.392c1.866 0 3.425.71 4.675 2.128 1.27 1.4 1.904 3.155 1.904 5.264 0 2.11-.634 3.873-1.904 5.292-1.25 1.4-2.809 2.1-4.675 2.1-1.7 0-3.025-.56-3.977-1.68V30.6H76.95V11h4.647v1.288c.953-1.12 2.278-1.68 3.977-1.68Zm-3.165 9.604c.542.56 1.251.84 2.128.84.878 0 1.587-.28 2.128-.84.542-.56.813-1.297.813-2.212 0-.915-.271-1.652-.813-2.212-.54-.56-1.25-.84-2.128-.84-.877 0-1.586.28-2.128.84-.54.56-.812 1.297-.812 2.212 0 .915.271 1.652.813 2.212ZM104.06 11h4.648v14h-4.648v-1.288c-.952 1.12-2.277 1.68-3.976 1.68-1.867 0-3.435-.7-4.704-2.1-1.25-1.419-1.876-3.183-1.876-5.292 0-2.11.625-3.864 1.876-5.264 1.27-1.419 2.837-2.128 4.704-2.128 1.699 0 3.024.56 3.976 1.68V11Zm-5.068 9.212c.541.56 1.251.84 2.128.84.877 0 1.587-.28 2.128-.84.541-.56.812-1.297.812-2.212 0-.915-.271-1.652-.812-2.212-.541-.56-1.251-.84-2.128-.84-.877 0-1.587.28-2.128.84-.541.56-.812 1.297-.812 2.212 0 .915.27 1.652.812 2.212ZM120.279 11h5.152l-4.788 13.776c-.747 2.11-1.802 3.63-3.164 4.564-1.363.933-3.127 1.353-5.292 1.26v-4.368c.989 0 1.736-.121 2.24-.364.504-.243.914-.681 1.232-1.316L110.059 11h5.208l2.828 8.12 2.184-8.12Z" fill="#fff"/><defs><clipPath id="a"><path fill="#fff" transform="translate(0 4.779)" d="M0 0h27v25.442H0z"/></clipPath></defs></svg>