<svg width="42" height="40" fill="none" xmlns="http://www.w3.org/2000/svg"><ellipse opacity=".3" cx="24.914" cy="23.694" rx="16.164" ry="15.354" fill="#06CB4B"/><path fill-rule="evenodd" clip-rule="evenodd" d="M6.016 10.426a11 11 0 0 0 4.146 12.315h-.001l-2.864 6.546a.687.687 0 0 0 .631.963h17.146a.687.687 0 0 0 .631-.964l-2.864-6.545A11 11 0 1 0 6.016 10.426Zm10.485 8.817a5.503 5.503 0 0 1-5.336-4.16l2.667-.666a2.75 2.75 0 0 0 5.338 0l2.668.667a5.503 5.503 0 0 1-5.337 4.16Z" fill="#3AB700"/></svg>